<?xml version="1.0" standalone="no"?>
<!DOCTYPE svg PUBLIC "-//W3C//DTD SVG 20010904//EN"
 "http://www.w3.org/TR/2001/REC-SVG-20010904/DTD/svg10.dtd">
<svg version="1.0" xmlns="http://www.w3.org/2000/svg"
 width="128.000000pt" height="128.000000pt" viewBox="0 0 128.000000 128.000000"
 preserveAspectRatio="xMidYMid meet">
<metadata>
Created by potrace 1.11, written by Peter Selinger 2001-2013
</metadata>
<g transform="translate(0.000000,128.000000) scale(0.100000,-0.100000)"
fill="#000000" stroke="none">
<path d="M395 1209 c-16 -5 -39 -11 -50 -13 -11 -2 -36 -11 -56 -19 l-35 -14
-57 -200 c-31 -110 -57 -205 -57 -212 0 -9 6 -11 17 -6 10 4 23 8 30 9 7 1 16
5 19 9 4 4 14 1 22 -6 10 -8 13 -8 9 -1 -5 8 13 16 56 23 76 13 110 14 103 3
-3 -5 1 -9 9 -9 8 0 12 4 9 9 -3 4 -4 8 -2 8 12 0 116 -42 144 -59 37 -22 40
-20 49 26 2 10 4 19 5 21 2 1 4 7 5 12 1 6 4 13 5 18 1 4 2 11 1 16 -1 4 6 15
16 23 10 8 12 11 4 7 -11 -6 -13 -3 -7 12 4 10 14 42 21 69 8 28 23 83 34 124
24 85 26 81 -67 127 -57 29 -168 40 -227 23z"/>
<path d="M754 1089 c-5 -8 -75 -246 -89 -299 -2 -8 -10 -36 -18 -62 l-15 -47
32 -24 c57 -43 142 -70 222 -71 41 -1 74 3 74 7 0 5 4 6 9 3 9 -6 129 31 147
45 6 5 14 6 18 2 4 -4 4 0 1 9 -4 9 6 54 20 100 15 45 29 94 31 107 3 14 7 28
10 33 3 5 8 21 10 36 3 15 12 49 21 75 21 63 11 72 -54 47 -126 -48 -244 -43
-351 14 -34 19 -65 30 -68 25z"/>
<path d="M1236 982 c-3 -5 1 -9 9 -9 8 0 12 4 9 9 -3 4 -7 8 -9 8 -2 0 -6 -4
-9 -8z"/>
<path d="M308 734 c-2 -2 -22 -5 -44 -7 -44 -5 -64 -11 -114 -35 -35 -17 -35
-19 -91 -217 -31 -110 -53 -204 -49 -209 5 -5 28 -2 53 7 25 8 48 13 51 9 3
-3 6 0 6 5 0 13 18 12 39 -1 10 -6 12 -5 7 2 -7 12 -3 13 64 16 46 2 126 -18
123 -32 -1 -5 6 -8 15 -5 10 2 28 -5 41 -16 30 -26 38 -26 46 -1 4 11 10 18
15 15 4 -3 6 4 3 15 -3 13 0 20 8 20 12 0 12 2 0 9 -9 6 -10 11 -2 15 6 4 11
16 11 27 0 10 4 19 10 19 5 0 7 6 4 13 -3 8 1 27 7 43 7 16 12 32 11 36 -1 3
8 34 19 67 11 34 21 78 22 98 2 37 1 38 -64 70 -47 24 -84 34 -127 37 -33 2
-62 2 -64 0z"/>
<path d="M1126 622 c-3 -5 1 -9 9 -9 8 0 12 4 9 9 -3 4 -7 8 -9 8 -2 0 -6 -4
-9 -8z"/>
<path d="M616 612 c-6 -10 -84 -283 -92 -321 -3 -13 -9 -32 -14 -42 -24 -44 6
-79 95 -110 22 -7 45 -16 50 -20 14 -9 198 -8 210 2 6 4 23 9 37 11 15 2 30 7
34 11 4 4 16 7 26 7 18 0 43 47 52 95 6 35 48 179 54 190 4 6 7 17 7 25 0 8 6
14 14 12 11 -2 12 0 2 11 -8 11 -9 22 -1 42 13 35 4 71 -14 56 -7 -6 -26 -12
-42 -14 -17 -2 -35 -6 -41 -10 -5 -3 -30 -9 -54 -12 -106 -15 -182 -1 -274 51
-24 13 -46 20 -49 16z"/>
<path d="M1050 346 c0 -2 7 -7 16 -10 8 -3 12 -2 9 4 -6 10 -25 14 -25 6z"/>
<path d="M1056 302 c-3 -5 1 -9 9 -9 8 0 12 4 9 9 -3 4 -7 8 -9 8 -2 0 -6 -4
-9 -8z"/>
<path d="M206 282 c-3 -5 1 -9 9 -9 8 0 12 4 9 9 -3 4 -7 8 -9 8 -2 0 -6 -4
-9 -8z"/>
<path d="M895 111 c-3 -5 -2 -12 3 -15 5 -3 9 1 9 9 0 17 -3 19 -12 6z"/>
</g>
</svg>
